<svg xmlns="http://www.w3.org/2000/svg" width="256" height="256" viewBox="0 0 100 100"><rect width="100" height="100" rx="20" fill="#4a4a4a"></rect><path d="M32.30 71.64L32.30 71.64Q31.93 72.01 30.91 72.30Q29.89 72.59 28.65 72.59L28.65 72.59Q27.26 72.59 26.17 72.19Q25.07 71.79 24.71 70.99L24.71 70.99Q23.76 69.09 22.48 66.10Q21.20 63.10 19.78 59.42Q18.35 55.73 16.86 51.64Q15.36 47.55 13.97 43.54Q12.59 39.52 11.35 35.77Q10.11 32.01 9.23 29.01L9.23 29.01Q9.67 28.43 10.54 27.92Q11.42 27.41 12.51 27.41L12.51 27.41Q13.90 27.41 14.56 28.06Q15.22 28.72 15.65 30.03L15.65 30.03Q18.94 39.60 21.93 48.50Q24.92 57.41 28.50 66.61L28.50 66.61L28.79 66.61Q30.40 62.45 32.12 57.74Q33.83 53.03 35.47 48.03Q37.12 43.03 38.69 37.92Q40.25 32.81 41.50 27.92L41.50 27.92Q42.44 27.41 43.98 27.41L43.98 27.41Q45.29 27.41 46.09 28.06Q46.90 28.72 46.90 30.03L46.90 30.03Q46.90 31.13 46.06 34.16Q45.22 37.19 43.90 41.20Q42.59 45.22 40.95 49.82Q39.31 54.42 37.70 58.65Q36.09 62.88 34.63 66.39Q33.17 69.89 32.30 71.64ZM90.77 72.08L90.77 72.08Q90.33 72.23 89.60 72.41Q88.87 72.59 88.00 72.59L88.00 72.59Q84.78 72.59 84.78 69.89L84.78 69.89L84.78 52.23L62.01 52.23L62.01 72.08Q61.57 72.23 60.84 72.41Q60.11 72.59 59.23 72.59L59.23 72.59Q56.02 72.59 56.02 69.89L56.02 69.89L56.02 27.99Q56.39 27.84 57.15 27.66Q57.92 27.48 58.80 27.48L58.80 27.48Q62.01 27.48 62.01 30.18L62.01 30.18L62.01 47.26L84.78 47.26L84.78 27.99Q85.15 27.84 85.92 27.66Q86.68 27.48 87.56 27.48L87.56 27.48Q90.77 27.48 90.77 30.18L90.77 30.18L90.77 72.08Z" fill="#fff"></path></svg>